<svg width="60" height="69" viewBox="0 0 60 69" fill="none" xmlns="http://www.w3.org/2000/svg">
<path d="M59.4117 21.7232C51.8641 17.8408 49.2605 22.0803 40.7209 23.9191C42.7988 14.9655 43.3261 5.92725 40.9667 0.223804C40.8818 0.0279011 40.6404 -0.061143 40.4483 0.0457131C35.5104 2.87295 29.6072 9.01717 24.8391 16.2522C19.6644 9.17745 13.0016 4.6049 1.90582 7.20061C1.68238 7.20061 1.5126 7.40097 1.54388 7.61913C3.86313 13.0154 11.1624 21.8701 14.9518 27.3153C9.71002 26.0669 8.44665 25.638 0.495876 27.3153C0.31266 27.4355 0.254961 27.5549 0.0140373 28.2737C-0.226897 31.8678 2.59397 39.1417 11.5537 40.8291C7.13417 45.7178 4.59151 51.8487 4.2653 59.4622C4.25636 59.6803 4.44405 59.8584 4.65855 59.8406C10.4768 59.3241 16.0671 57.1202 21.4206 53.22C22.5735 58.5361 25.2994 63.4648 29.8351 67.9439C29.9915 68.0952 30.2507 68.0819 30.3803 67.9082C34.2815 62.7969 36.4577 56.5014 36.9225 49.0348C43.7283 53.821 51.8345 56.577 51.8881 59.382C51.8881 59.382 52.3082 59.2663 52.3216 59.0481C54.1359 50.7534 52.7416 42.9217 47.2943 36.2388C52.7774 33.6297 52.9161 27.0864 59.15 22.2467C59.6734 21.9849 59.6083 21.8078 59.4117 21.7232Z" fill="#E64320"/>
<path d="M59.9352 33.5009C51.3372 29.7818 48.6087 27.2361 43.5225 26.7647C47.7374 21.7369 49.8161 16.7532 54.0974 12.0604C54.0974 12.0604 53.9825 11.7211 53.8056 11.7255C46.4062 9.9365 39.7188 11.915 34.1416 18.4101C30.7537 11.8489 26.4149 5.99274 22.4565 3.69699C22.3194 3.61768 22.138 3.68819 22.0761 3.84241C20.8509 6.97098 20.1079 12.5451 19.9841 18.6436C15.402 16.0791 10.13 15.2815 4.02205 16.6034C3.86283 16.6387 3.75668 16.8061 3.80091 16.9604C5.601 22.4111 9.6081 26.9762 15.7957 30.6599C6.66691 32.1493 7.36569 38.1377 3.16842 43.6898C3.09765 43.8396 3.16845 44.0246 3.31441 44.0819C8.58643 43.9762 13.0314 44.4653 17.7859 43.6986C16.9323 48.0169 16.6846 53.049 15.2251 57.6317C15.2605 57.7903 15.433 57.8961 15.5834 57.8476C20.3247 54.0625 25.7824 51.7094 29.4047 46.1353C32.054 51.3173 37.7064 54.1726 42.4963 58.6055C42.6511 58.6672 42.8325 58.5879 42.8767 58.4337C44.4291 53.0578 43.7834 47.2061 40.9439 40.8784C49.2765 42.5837 55.0922 39.9025 59.9352 34.0243C60.0811 33.9186 59.9352 33.5009 59.9352 33.5009Z" fill="#EED815"/>
<path d="M30.0984 41.8761C34.2893 41.8761 37.6885 38.477 37.6885 34.286C37.6885 30.0951 34.2893 26.696 30.0984 26.696C25.9075 26.696 22.5084 30.0951 22.5084 34.286C22.5084 38.477 25.9075 41.8761 30.0984 41.8761Z" fill="#F49135"/>
</svg>
