<svg width="60" height="67" viewBox="0 0 60 67" fill="none" xmlns="http://www.w3.org/2000/svg">
<path d="M59.8546 21.3885C52.2507 17.5659 49.6278 21.7401 41.0244 23.5506C43.1179 14.7349 43.6491 5.83591 41.2721 0.220355C41.1865 0.0274711 40.9434 -0.0602008 40.7498 0.0450087C35.7751 2.82868 29.8279 8.87822 25.0243 16.0018C19.811 9.03603 13.0985 4.53394 1.92002 7.08965C1.69492 7.08965 1.52387 7.28692 1.55539 7.50172C3.89193 12.8148 11.2456 21.5331 15.0633 26.8944C9.7824 25.6652 8.50962 25.243 0.499573 26.8944C0.314991 27.0127 0.256862 27.1303 0.014142 27.838C-0.228589 31.3768 2.61331 38.5385 11.6398 40.1999C7.18735 45.0133 4.62574 51.0497 4.2971 58.5459C4.28809 58.7607 4.47718 58.936 4.69327 58.9185C10.5549 58.41 16.1869 56.24 21.5803 52.3999C22.7418 57.634 25.488 62.4868 30.0576 66.8969C30.2151 67.0459 30.4762 67.0327 30.6068 66.8618C34.537 61.8293 36.7295 55.6307 37.1977 48.2792C44.0543 52.9917 52.2209 55.7052 52.2749 58.467C52.2749 58.467 52.6981 58.353 52.7116 58.1382C54.5394 49.9713 53.1348 42.2603 47.6469 35.6803C53.1708 33.1115 53.3106 26.669 59.5909 21.9038C60.1182 21.6462 60.0527 21.4718 59.8546 21.3885Z" fill="#A80079"/>
<path d="M59.935 33.8571C51.3157 30.1356 48.5805 27.5881 43.4817 27.1163C47.7071 22.0851 49.7909 17.0981 54.0828 12.402C54.0828 12.402 53.9676 12.0625 53.7902 12.0669C46.3725 10.2766 39.6686 12.2565 34.0776 18.756C30.6813 12.1903 26.3318 6.33018 22.3635 4.03286C22.2261 3.95349 22.0442 4.02405 21.9822 4.17838C20.754 7.30909 20.0092 12.887 19.885 18.9897C15.2916 16.4234 10.0065 15.6253 3.88348 16.9481C3.72387 16.9834 3.61746 17.151 3.66179 17.3053C5.46635 22.7598 9.48335 27.328 15.6862 31.0143C6.53489 32.5047 7.2354 38.4971 3.02774 44.053C2.9568 44.2029 3.02777 44.3881 3.17409 44.4455C8.45916 44.3396 12.9151 44.8291 17.6814 44.0618C16.8257 48.3831 16.5774 53.4187 15.1142 58.0045C15.1497 58.1633 15.3227 58.2691 15.4734 58.2206C20.2264 54.4329 25.6977 52.0782 29.329 46.5003C31.9848 51.6858 37.6512 54.5431 42.453 58.979C42.6082 59.0407 42.7899 58.9614 42.8343 58.807C44.3905 53.4275 43.7432 47.5718 40.8967 41.2398C49.25 42.9462 55.08 40.2632 59.935 34.381C60.0813 34.2751 59.935 33.8571 59.935 33.8571Z" fill="#DE13E2"/>
<path d="M30 42C34.4172 42 38 38.4173 38 34C38 29.5827 34.4172 26 30 26C25.5827 26 22 29.5827 22 34C22 38.4173 25.5827 42 30 42Z" fill="#F4E135"/>
</svg>
